# Blender 3.6.5
# www.blender.org
mtllib fish.mtl
o Cube
v 0.000000 -1.244337 -0.003270
v 0.000000 -0.274023 -1.968874
v 0.000000 1.244337 -0.015461
v 0.352987 0.000000 -0.002323
v 0.000000 0.511547 1.956487
v -0.352987 0.000000 -0.002323
v 0.000000 0.234656 1.168386
v 0.000000 0.408865 -1.238010
v 0.000000 -0.552313 1.968874
v 0.003672 -0.658840 -1.178836
v 0.003870 -0.289734 1.178446
v 0.000000 -0.964605 1.035998
v 0.015997 -0.657562 0.372457
v -0.176494 -0.137012 -0.985598
v 0.176494 -0.137012 -0.985598
v -0.000000 0.682773 -0.506937
v 0.009899 -0.775534 -0.419890
v 0.012948 -0.716548 -0.023717
v 0.000000 -0.020383 1.646183
vn -0.9587 0.2380 -0.1557
vn -0.9512 -0.2953 -0.0895
vn 0.9550 -0.2804 -0.0969
vn 0.9231 0.2930 -0.2493
vn 0.9587 0.2380 -0.1557
vn 0.9254 -0.3731 -0.0674
vn -0.9997 0.0247 0.0040
vn -0.9231 0.2930 -0.2493
vn -0.9998 0.0099 -0.0195
vn 0.9116 -0.3853 0.1437
vn 1.0000 0.0034 0.0033
vn 0.9492 0.1948 0.2472
vn -0.9160 -0.3970 -0.0588
vn -0.8957 -0.4212 0.1428
vn -0.9498 0.1907 0.2481
vt 0.731692 0.450873
vt 0.619170 0.744816
vt 0.791028 0.646603
vt 0.960813 0.404834
vt 0.594657 0.243541
vt 0.769019 0.288472
vt 0.517808 0.990579
vt 0.500546 0.500000
vt 0.509625 0.252338
vt 0.496719 0.075447
vt 0.422871 0.272685
vt 0.500546 0.500000
vt 0.234188 0.147953
vt 0.249296 0.408466
vt 0.229165 0.589975
vt 0.040074 0.683421
vt 0.104944 0.479073
vt 0.037162 0.301962
s 0
usemtl Material.001
f 14/1/1 16/2/1 8/3/1 2/4/1
f 17/5/2 14/1/2 2/4/2 10/6/2
f 17/5/3 10/6/3 2/4/3 15/1/3
f 15/1/4 16/2/4 3/7/4 4/8/4
f 2/4/5 8/3/5 16/2/5 15/1/5
f 4/8/6 18/9/6 17/5/6 15/1/6
f 1/10/7 13/11/7 18/9/7 17/5/7
f 6/12/8 3/7/8 16/2/8 14/1/8
f 12/13/9 11/14/9 13/11/9
f 13/11/10 18/9/10 4/8/10 11/14/10
f 11/14/11 7/15/11 5/16/11 19/17/11 9/18/11
f 4/8/12 3/7/12 7/15/12 11/14/12
f 18/9/13 6/12/13 14/1/13 17/5/13
f 13/11/14 11/14/14 6/12/14 18/9/14
f 7/15/15 3/7/15 6/12/15 11/14/15
