# Blender 3.6.5
# www.blender.org
mtllib fish.mtl
o Cube
v 0.000000 -1.244337 -0.003270
v 0.000000 -0.274023 -1.968874
v 0.000000 1.244337 -0.015461
v 0.352987 0.000000 -0.002323
v 0.000000 0.511547 1.956487
v -0.352987 0.000000 -0.002323
v 0.000000 0.234656 1.168386
v 0.000000 0.408865 -1.238010
v 0.000000 -0.552313 1.968874
v 0.003672 -0.658840 -1.178836
v 0.003870 -0.289734 1.178446
v 0.000000 -0.964605 1.035998
v 0.015997 -0.657562 0.372457
v -0.176494 -0.137012 -0.985598
v 0.176494 -0.137012 -0.985598
v -0.000000 0.682773 -0.506937
v 0.009899 -0.775534 -0.419890
v 0.012948 -0.716548 -0.023717
v 0.000000 -0.020383 1.646183
vn -0.9554 0.2157 -0.2016
vn -0.9490 -0.3127 -0.0403
vn 0.9537 -0.2961 -0.0534
vn 0.9232 0.3217 -0.2105
vn 0.9554 0.2157 -0.2016
vn 0.9301 -0.3477 -0.1185
vn -0.9997 0.0247 0.0040
vn -0.9232 0.3217 -0.2105
vn -0.9998 0.0099 -0.0195
vn 0.9133 -0.3652 0.1804
vn 1.0000 -0.0000 -0.0000
vn 0.9580 0.0126 0.2863
vn -0.8872 -0.4553 0.0746
vn -0.9573 -0.0015 0.2890
vn 0.9545 -0.2664 -0.1342
vn 0.9201 0.2579 -0.2947
vn 0.9593 0.2644 -0.0991
vn 0.9013 -0.4294 0.0570
vn -0.9201 0.2579 -0.2947
vn 1.0000 0.0037 0.0061
vn 1.0000 0.0075 0.0040
vn 0.9360 0.2679 0.2285
vn -0.9220 -0.3701 -0.1139
vn -0.8977 -0.4058 0.1717
vn -0.9360 0.2679 0.2285
vn -0.9593 0.2644 -0.0991
vn -0.9510 -0.2796 -0.1318
vt 0.731692 0.450873
vt 0.791028 0.646603
vt 0.960813 0.404834
vt 0.769019 0.288472
vt 0.594657 0.243541
vt 0.619170 0.744816
vt 0.500546 0.500000
vt 0.496719 0.075447
vt 0.509625 0.252338
vt 0.500546 0.500000
vt 0.234188 0.147953
vt 0.249296 0.408466
vt 0.422871 0.272685
vt 0.229165 0.589975
vt 0.040074 0.683421
vt 0.104944 0.479073
vt 0.517808 0.990579
vt 0.037162 0.301962
s 0
usemtl Material.001
f 14/1/1 8/2/1 2/3/1
f 14/1/2 10/4/2 17/5/2
f 10/4/3 15/1/3 17/5/3
f 16/6/4 4/7/4 15/1/4
f 8/2/5 15/1/5 2/3/5
f 4/7/6 17/5/6 15/1/6
f 1/8/7 18/9/7 17/5/7
f 6/10/8 16/6/8 14/1/8
f 12/11/9 11/12/9 13/13/9
f 13/13/10 4/7/10 11/12/10
f 7/14/11 5/15/11 19/16/11
f 4/7/12 7/14/12 11/12/12
f 6/10/13 17/5/13 18/9/13
f 13/13/13 6/10/13 18/9/13
f 7/14/14 6/10/14 11/12/14
f 10/4/15 2/3/15 15/1/15
f 16/6/16 3/17/16 4/7/16
f 8/2/17 16/6/17 15/1/17
f 4/7/18 18/9/18 17/5/18
f 1/8/7 13/13/7 18/9/7
f 6/10/19 3/17/19 16/6/19
f 13/13/18 18/9/18 4/7/18
f 9/18/20 11/12/20 19/16/20
f 11/12/21 7/14/21 19/16/21
f 4/7/22 3/17/22 7/14/22
f 6/10/23 14/1/23 17/5/23
f 13/13/24 11/12/24 6/10/24
f 7/14/25 3/17/25 6/10/25
f 14/1/26 16/6/26 8/2/26
f 14/1/27 2/3/27 10/4/27